<svg width="261" height="37" viewBox="0 0 261 37" fill="none" xmlns="http://www.w3.org/2000/svg">
<path d="M31.8636 24.8264C32.0946 26.6716 31.5077 28.5992 30.0909 30.0123C28.8728 31.2273 27.2727 31.8344 25.6727 31.8344C25.4114 31.8344 25.1508 31.8123 24.8917 31.78C23.5227 34.3263 20.9426 35.8808 17.9876 35.8808C15.0323 35.8808 12.4525 34.326 11.0839 31.78C10.8243 31.8123 10.5634 31.8344 10.3021 31.8344C8.70174 31.8344 7.10171 31.2273 5.88357 30.0123C4.46674 28.5992 3.87983 26.6716 4.11087 24.8264C1.55819 23.461 0 20.888 0 17.9404C0 14.9928 1.55819 12.4195 4.11087 11.0541C3.87983 9.20957 4.46674 7.28159 5.88357 5.86849C7.30039 4.45503 9.2338 3.87 11.0828 4.10044C12.4518 1.55411 15.0323 0 17.9876 0C20.9426 0 23.523 1.55411 24.892 4.10044C26.7414 3.87 28.6741 4.45538 30.0909 5.86849C31.5077 7.28159 32.0946 9.20957 31.8636 11.0541C34.4166 12.4195 35.9748 14.9928 35.9748 17.9404C35.9748 20.8876 34.4163 23.4613 31.8636 24.8264ZM24.7383 17.9404L21.9813 15.1903L19.1393 17.9404L21.9813 20.6905L24.7383 17.9404ZM23.0395 21.7147L23.7642 22.4158C25.4835 24.08 27.8786 24.6114 30.1106 23.852C29.8736 23.2551 29.517 22.7062 29.0479 22.2383L25.7813 18.9803L23.0395 21.7147ZM13.9931 20.6905L16.8352 17.9404L13.9931 15.1899L11.2358 17.9404L13.9931 20.6905ZM10.1928 18.9803L6.92623 22.2383C6.45008 22.7132 6.09808 23.2645 5.86528 23.8527C8.09724 24.6114 10.491 24.0797 12.2102 22.4158L12.9346 21.715L10.1928 18.9803ZM12.9343 14.1658L12.2099 13.4647C11.0054 12.2992 9.47012 11.69 7.89153 11.69C7.21635 11.69 6.53519 11.8075 5.86704 12.034C6.09949 12.6198 6.45149 13.169 6.92588 13.6422L10.1924 16.9005L12.9343 14.1658ZM17.9876 16.8251L20.8469 14.0585L17.9872 11.2063L15.1279 14.0585L17.9876 16.8251ZM15.1276 21.8223L17.9869 24.6741L20.8466 21.8223L17.9872 19.055L15.1276 21.8223ZM25.7817 16.9005L29.0482 13.6422C29.5174 13.1746 29.8739 12.6257 30.1109 12.0288C27.879 11.2698 25.4846 11.8008 23.7646 13.4647L23.0398 14.1658L25.7817 16.9005ZM25.6727 5.51354C24.3972 5.51354 23.1981 6.00878 22.2968 6.90841L19.0299 10.1664L21.9054 13.0343L22.647 12.3164C24.7612 10.2705 27.6852 9.59153 30.4376 10.4557C30.4401 10.3954 30.4468 10.3358 30.4468 10.2755C30.4468 9.00369 29.9502 7.80769 29.0482 6.90841C28.1466 6.00878 26.9478 5.51354 25.6727 5.51354ZM12.6913 4.51816C13.4294 4.82224 14.1215 5.27083 14.7207 5.86849L17.9872 9.12645L21.2538 5.86849C21.8516 5.27224 22.5422 4.824 23.2793 4.52026C22.1501 2.69995 20.2023 1.6004 17.9876 1.6004C15.7714 1.6004 13.8205 2.6975 12.6913 4.51816ZM5.53895 10.4554C8.29206 9.59187 11.2147 10.2709 13.3278 12.3164L14.0694 13.034L16.9446 10.1664L13.6777 6.90841C12.7472 5.98002 11.5248 5.51565 10.3021 5.51565C9.07977 5.51565 7.85671 5.98002 6.92623 6.90841C5.94968 7.8824 5.49077 9.1766 5.53895 10.4554ZM4.53004 23.2232C4.83458 22.4863 5.28434 21.7964 5.88357 21.1987L9.15011 17.9408L5.88357 14.6824C5.28434 14.0851 4.83458 13.3949 4.53004 12.6583C2.70459 13.7849 1.60461 15.7311 1.60461 17.9408C1.60461 20.1504 2.70459 22.0966 4.53004 23.2232ZM13.6773 28.9724L16.9442 25.7141L14.0691 22.8465L13.3274 23.5644C11.214 25.6096 8.29066 26.2882 5.53859 25.4254C5.49041 26.7042 5.94933 27.9984 6.92588 28.9724C8.78755 30.8292 11.8164 30.8285 13.6773 28.9724ZM23.2786 31.3598C22.5419 31.0568 21.8516 30.6082 21.2538 30.0123L17.9872 26.7543L14.7207 30.0123C14.1229 30.6082 13.4326 31.0568 12.6962 31.3598C13.825 33.1805 15.7721 34.28 17.9876 34.28C20.202 34.28 22.1494 33.1805 23.2786 31.3598ZM30.4464 25.6057C30.4464 25.5464 30.4397 25.4878 30.4376 25.4286C29.6563 25.6734 28.8608 25.7958 28.0738 25.7958C26.0898 25.7958 24.1606 25.0291 22.6467 23.5648L21.905 22.8468L19.0295 25.7144L22.2964 28.9727C23.1977 29.8724 24.3969 30.3673 25.6723 30.3673C26.9474 30.3673 28.1466 29.8727 29.0479 28.9727C29.9502 28.0731 30.4464 26.8775 30.4464 25.6057ZM34.3702 17.9404C34.3702 15.7308 33.2702 13.7842 31.4448 12.658C31.1399 13.3945 30.6901 14.0848 30.0909 14.6821L26.8244 17.9404L30.0909 21.1984C30.6901 21.796 31.1399 22.4863 31.4448 23.2228C33.2702 22.0966 34.3702 20.15 34.3702 17.9404Z" fill="#352A6C"/>
<path d="M63.3421 30.8377L62.0585 29.5893C61.9437 29.4778 62.0075 29.2821 62.1665 29.2578L63.9406 29.0007C64.0044 28.9916 64.0584 28.9522 64.0866 28.8945L64.8797 27.2912C64.9519 27.1471 65.158 27.1471 65.2295 27.2912L66.0226 28.8945C66.0508 28.9514 66.1055 28.9916 66.1687 29.0007L67.9427 29.2578C68.1024 29.2813 68.1663 29.477 68.0507 29.5893L66.7671 30.8377C66.7207 30.8832 66.7002 30.9476 66.7108 31.0106L67.0135 32.7717C67.0409 32.9302 66.8743 33.0508 66.7321 32.9765L65.1451 32.1445C65.0881 32.1156 65.0204 32.1156 64.9641 32.1445L63.3771 32.9765C63.2341 33.0516 63.0676 32.9302 63.0949 32.7717L63.3976 31.0106C63.409 30.9469 63.3877 30.8824 63.3421 30.8377Z" fill="#352A6C"/>
<path d="M77.1807 30.8377C77.227 30.8832 77.2476 30.9476 77.2362 31.0106L76.9335 32.7717C76.9061 32.9302 77.0727 33.0508 77.2156 32.9765L78.8027 32.1445C78.8589 32.1156 78.9266 32.1156 78.9837 32.1445L80.5699 32.9765C80.7129 33.0516 80.8794 32.9302 80.8521 32.7717L80.5494 31.0106C80.5388 30.9476 80.5601 30.8832 80.6057 30.8377L81.8893 29.5893C82.0049 29.4778 81.941 29.2821 81.7813 29.2578L80.0072 29.0007C79.9441 28.9916 79.8893 28.9522 79.8604 28.8945L79.0673 27.2912C78.9966 27.1471 78.7905 27.1471 78.7183 27.2912L77.9251 28.8945C77.897 28.9514 77.843 28.9916 77.7791 29.0007L76.005 29.2578C75.8453 29.2813 75.7822 29.477 75.897 29.5893L77.1807 30.8377Z" fill="#352A6C"/>
<path d="M91.019 30.8377C91.0654 30.8832 91.086 30.9476 91.0745 31.0106L90.7719 32.7717C90.7445 32.9302 90.9118 33.0508 91.054 32.9765L92.6411 32.1445C92.6973 32.1156 92.765 32.1156 92.822 32.1445L94.4083 32.9765C94.5513 33.0516 94.7178 32.9302 94.6904 32.7717L94.3878 31.0106C94.3771 30.9476 94.3984 30.8832 94.4441 30.8377L95.7277 29.5893C95.8433 29.4778 95.7794 29.2821 95.6197 29.2578L93.8456 29.0007C93.7825 28.9916 93.7277 28.9522 93.6996 28.8945L92.9064 27.2912C92.835 27.1471 92.6289 27.1471 92.5574 27.2912L91.7635 28.8945C91.7354 28.9514 91.6814 28.9916 91.6175 29.0007L89.8434 29.2578C89.6837 29.2813 89.6206 29.477 89.7354 29.5893L91.019 30.8377Z" fill="#352A6C"/>
<path d="M109.458 29.2588L107.684 29.0017C107.621 28.9926 107.566 28.9531 107.538 28.8955L106.745 27.2922C106.673 27.1481 106.467 27.1481 106.396 27.2922L105.602 28.8955C105.574 28.9524 105.52 28.9926 105.456 29.0017L103.682 29.2588C103.522 29.2823 103.459 29.478 103.574 29.591L104.858 30.8386C104.904 30.8842 104.925 30.9486 104.912 31.0116L104.611 32.7727C104.583 32.9312 104.75 33.0518 104.893 32.9775L106.48 32.1454C106.536 32.1166 106.604 32.1166 106.661 32.1454L108.247 32.9775C108.39 33.0526 108.556 32.9312 108.529 32.7727L108.226 31.0116C108.216 30.9486 108.237 30.8842 108.283 30.8386L109.566 29.591C109.682 29.478 109.618 29.2823 109.458 29.2588Z" fill="#352A6C"/>
<path d="M79.7736 21.6863H81.4559V21.9404H74.669V21.6863H75.7263V12.1447C75.7263 10.2428 75.5389 9.75034 74.8175 9.75034C73.9114 9.75034 73.0998 10.8622 72.8304 11.9465C73.0035 12.5343 73.0911 13.1524 73.0911 13.7851V21.6863H74.053V21.9404H67.9866V21.6863H69.0443V11.3001C69.0443 10.2142 68.8086 9.75034 68.2556 9.75034C67.4396 9.75034 66.6414 10.9739 66.4074 12.117L66.4091 21.6863H67.3714V21.9404H52.2685V21.6863H54.4309L52.2051 16.0656H48.1379L46.1663 21.6863H48.3357V21.9404H44V21.6863H45.893L52.1105 4L59.1426 21.6863H62.3627V9.7499H60.6808V9.49622H66.4096V11.2395C67.0874 9.55337 68.2867 9.1779 69.2174 9.1779C70.9352 9.1779 72.0749 9.94862 72.6948 11.531C73.196 10.0511 74.331 9.1779 75.7798 9.1779C78.2807 9.1779 79.774 10.9001 79.774 13.7847V21.6863H79.7736ZM52.1002 15.8115L50.0551 10.6336L48.2338 15.8115H52.1002ZM107.629 13.7847C107.629 10.9001 106.136 9.1779 103.635 9.1779C102.343 9.1779 101.39 9.88575 100.851 11.2346V9.49622H94.8817V9.7499H96.8045V21.6858H94.8817V21.94H101.957V21.6858H100.851L100.848 12.0955C101.186 10.6921 101.92 9.7499 102.674 9.7499C103.362 9.7499 103.582 10.3316 103.582 12.1443V21.6858H102.477V21.94H109.552V21.6858H107.629V13.7847V13.7847ZM122.22 15.4778V16.0608C122.22 19.6603 122.468 21.3557 124.739 21.3557C126.857 21.3557 128.35 19.8757 128.943 17.189L128.961 17.109H129.215L129.187 17.2338C128.494 20.3567 126.681 21.9404 123.802 21.9404C120.662 21.9404 117.908 18.8843 117.908 15.4004C117.908 11.9165 120.662 8.86046 123.802 8.86046C126.905 8.86046 129.43 11.7833 129.43 15.3762V15.4782H122.22V15.4778ZM122.22 15.2241H125.143C125.14 9.67999 124.882 9.11371 123.802 9.11371C122.33 9.11371 122.22 10.9339 122.22 13.7113V15.2241ZM114.962 4.31787H114.712V4.42076C114.712 7.41925 112.715 9.43421 109.741 9.43421H109.016V9.68791H110.914V17.9703C110.914 20.493 112.186 21.94 114.404 21.94C115.516 21.94 116.228 21.5368 116.553 20.7168C116.442 20.8786 116.256 20.9604 115.987 20.9604C115.487 20.9604 115.152 20.7085 115.022 20.2569C114.973 20.1237 114.961 19.9791 114.961 19.8551V10.9168V9.71649V9.68791H117.34V9.43421H114.961V4.31787H114.962ZM94.3347 20.73C94.0087 21.5412 93.2994 21.9404 92.1882 21.9404C90.4743 21.9404 89.3294 21.0791 88.8982 19.5319C88.7449 20.1255 88.1198 21.9241 85.4885 21.9241C83.4876 21.9241 82.1432 20.6333 82.1432 18.7128C82.1432 16.6601 83.7414 15.4246 85.3253 15.112C85.9505 14.9849 86.3014 14.9656 86.5829 14.9502C86.8406 14.9357 87.044 14.9243 87.36 14.8324C87.9095 14.6926 88.3313 14.1843 88.7048 13.6501V13.5169V11.1617C88.7048 9.79386 88.1168 9.18317 86.7988 9.18317C85.6768 9.18317 84.417 9.68218 83.6542 10.5637C84.0138 10.2986 84.4464 10.1412 84.8876 10.1412C86.0692 10.1412 87.0315 11.1203 87.0315 12.3241C87.0315 13.5279 86.0692 14.507 84.8876 14.507C83.415 14.507 82.7442 13.287 82.7442 12.1531V12.114C82.7433 11.946 82.7416 11.7165 82.8711 11.381C83.5583 9.52875 85.7545 8.8565 87.063 8.8565C90.5719 8.8565 92.7516 10.551 92.7516 13.2786V17.1331C92.7494 17.1327 92.7469 17.1323 92.7443 17.1318V19.8762C92.7443 19.9988 92.7559 20.1426 92.8056 20.2741C92.9355 20.7208 93.2696 20.9701 93.7687 20.9701C94.0372 20.9705 94.2229 20.8896 94.3347 20.73ZM88.7048 18.0103V14.0814C88.2864 14.6354 87.932 14.9054 87.4614 15.1793C86.6058 15.6572 86.1905 16.3646 86.1905 17.342V19.5214C86.1905 20.8514 86.3645 21.2791 86.9071 21.2791C87.8992 21.2791 88.7048 19.9333 88.7048 19.0558V18.0103Z" fill="#352A6C"/>
<path d="M177.641 20.8462C176.512 19.7171 174.956 19.0271 173.237 19.0271C171.518 19.0271 169.963 19.7297 168.834 20.8462C167.705 21.9753 167.015 23.531 167.015 25.2497C167.015 26.9684 167.717 28.5241 168.834 29.6532C169.963 30.7823 171.518 31.4723 173.237 31.4723C174.956 31.4723 176.512 30.7697 177.641 29.6532C178.77 28.5241 179.46 26.9684 179.46 25.2497V25.1995V25.1619V25.1493V25.0992V25.0741V25.0615C179.41 23.418 178.72 21.9377 177.641 20.8462ZM173.237 15.0125C175.169 15.0125 176.976 15.552 178.506 16.4678C179.071 16.1291 179.66 15.8406 180.288 15.6147C181.379 15.2133 182.558 15 183.763 15C186.586 15 189.145 16.1416 191.002 17.9984C192.858 19.8551 194 22.4144 194 25.2372C194 28.0599 192.858 30.6192 191.002 32.4759C189.145 34.3327 186.586 35.4743 183.763 35.4743V31.4597C185.482 31.4597 187.037 30.7572 188.166 29.6406C189.295 28.5115 189.985 26.9559 189.985 25.2372C189.985 23.5184 189.283 21.9628 188.166 20.8337C187.037 19.7046 185.482 19.0146 183.763 19.0146C183.01 19.0146 182.295 19.14 181.643 19.3784H181.63C182.722 20.9466 183.386 22.8284 183.462 24.8733V24.9486V24.9737V25.0866V25.0992V25.1117V25.2246C183.462 28.0474 182.32 30.6066 180.463 32.4634C178.607 34.3201 176.047 35.4618 173.225 35.4618C170.402 35.4618 167.843 34.3201 165.986 32.4634C164.142 30.6317 163 28.0724 163 25.2497C163 22.427 164.142 19.8677 165.998 18.0109C167.855 16.1542 170.414 15.0125 173.237 15.0125Z" fill="black"/>
<mask id="mask0" mask-type="alpha" maskUnits="userSpaceOnUse" x="163" y="15" width="31" height="21">
<path d="M177.641 20.8462C176.512 19.7171 174.956 19.0271 173.237 19.0271C171.518 19.0271 169.963 19.7297 168.834 20.8462C167.705 21.9753 167.015 23.531 167.015 25.2497C167.015 26.9684 167.717 28.5241 168.834 29.6532C169.963 30.7823 171.518 31.4723 173.237 31.4723C174.956 31.4723 176.512 30.7697 177.641 29.6532C178.77 28.5241 179.46 26.9684 179.46 25.2497V25.1995V25.1619V25.1493V25.0992V25.0741V25.0615C179.41 23.418 178.72 21.9377 177.641 20.8462ZM173.237 15.0125C175.169 15.0125 176.976 15.552 178.506 16.4678C179.071 16.1291 179.66 15.8406 180.288 15.6147C181.379 15.2133 182.558 15 183.763 15C186.586 15 189.145 16.1416 191.002 17.9984C192.858 19.8551 194 22.4144 194 25.2372C194 28.0599 192.858 30.6192 191.002 32.4759C189.145 34.3327 186.586 35.4743 183.763 35.4743V31.4597C185.482 31.4597 187.037 30.7572 188.166 29.6406C189.295 28.5115 189.985 26.9559 189.985 25.2372C189.985 23.5184 189.283 21.9628 188.166 20.8337C187.037 19.7046 185.482 19.0146 183.763 19.0146C183.01 19.0146 182.295 19.14 181.643 19.3784H181.63C182.722 20.9466 183.386 22.8284 183.462 24.8733V24.9486V24.9737V25.0866V25.0992V25.1117V25.2246C183.462 28.0474 182.32 30.6066 180.463 32.4634C178.607 34.3201 176.047 35.4618 173.225 35.4618C170.402 35.4618 167.843 34.3201 165.986 32.4634C164.142 30.6317 163 28.0724 163 25.2497C163 22.427 164.142 19.8677 165.998 18.0109C167.855 16.1542 170.414 15.0125 173.237 15.0125Z" fill="#F8C114"/>
</mask>
<g mask="url(#mask0)">
<path fill-rule="evenodd" clip-rule="evenodd" d="M192.181 26.102L193.474 27.4068C194.113 26.8924 195.393 25.5626 195.995 24.7848C195.744 24.3331 195.13 23.6807 194.703 23.4424C193.85 24.2077 192.947 25.2364 192.181 26.102Z" fill="#F8F8F9"/>
<path fill-rule="evenodd" clip-rule="evenodd" d="M185.959 28.3478C186.975 28.4608 188.179 28.0467 189.183 27.1058C189.835 26.4911 191.015 25.1613 191.266 24.7975C191.103 24.4336 190.4 23.8189 190.061 23.5931C189.685 23.8691 189.033 24.6595 188.317 25.3118C187.966 25.638 187.402 26.2026 186.799 26.2653C186.398 26.3029 185.858 26.1022 185.858 25.5C185.858 24.7347 186.812 24.2329 187.74 25.086C188.205 24.81 188.719 24.3207 189.02 23.844C188.23 22.7024 187 22.326 185.921 22.5644C182.835 23.2418 182.722 27.984 185.959 28.3478Z" fill="#F8F8F9"/>
<path fill-rule="evenodd" clip-rule="evenodd" d="M192.32 29.8788C192.771 29.5526 193.499 28.9504 193.75 28.4611C193.21 27.8715 191.492 26.1277 190.902 25.7388C190.525 26.2531 190.024 26.6671 189.635 27.1941L192.32 29.8788Z" fill="#F8F8F9"/>
<path fill-rule="evenodd" clip-rule="evenodd" d="M198.655 18.2361C197.752 17.3955 196.334 17.6088 195.305 18.3365C193.975 19.2648 192.407 20.8581 192.144 21.4854C192.407 21.8367 192.972 22.4012 193.361 22.627C193.963 21.9872 194.54 21.3474 195.167 20.7828C195.393 20.5696 195.882 20.1556 196.158 19.9799C197.049 19.3903 197.802 20.1556 196.986 21.0839C197.25 21.4728 197.915 22.213 198.216 22.4137C199.345 21.4101 199.947 19.4405 198.655 18.2361Z" fill="#F8F8F9"/>
<path fill-rule="evenodd" clip-rule="evenodd" d="M193.511 23.7939C193.11 23.1667 191.617 21.9999 191.04 21.1468C190.739 20.7077 190.689 20.3063 190.94 20.0177C191.228 19.6915 191.843 19.679 192.458 20.2185C192.884 19.817 193.311 19.4281 193.737 18.9388C192.445 17.333 190.563 17.6592 189.547 18.6879C188.443 19.7919 188.656 21.5232 190.061 23.0036C190.726 23.7061 191.492 24.4839 192.232 25.0736C192.495 24.9105 193.474 23.9445 193.511 23.7939Z" fill="#F8F8F9"/>
<path fill-rule="evenodd" clip-rule="evenodd" d="M189.572 32.6136C190.475 33.4541 191.893 33.2409 192.922 32.5132C194.252 31.5849 195.82 29.9916 196.083 29.3643C195.82 29.013 195.255 28.4485 194.866 28.2227C194.264 28.8625 193.687 29.5023 193.06 30.0668C192.834 30.2801 192.345 30.6941 192.069 30.8698C191.178 31.4594 190.425 30.6941 191.241 29.7658C190.977 29.3768 190.312 28.6367 190.011 28.4359C188.895 29.4396 188.28 31.4218 189.572 32.6136Z" fill="#F8F8F9"/>
<path fill-rule="evenodd" clip-rule="evenodd" d="M176.7 17.5083L177.992 18.813C178.632 18.2987 179.912 16.9688 180.514 16.191C180.263 15.7394 179.648 15.087 179.222 14.8486C178.369 15.6139 177.465 16.6301 176.7 17.5083Z" fill="#F8F8F9"/>
<path fill-rule="evenodd" clip-rule="evenodd" d="M170.465 19.7546C171.482 19.8675 172.686 19.4535 173.69 18.5126C174.342 17.8978 175.521 16.568 175.772 16.2042C175.609 15.8404 174.906 15.2256 174.568 14.9998C174.191 15.2884 173.539 16.0662 172.824 16.7186C172.473 17.0447 171.908 17.6093 171.318 17.672C170.917 17.7097 170.378 17.5089 170.378 16.9067C170.378 16.1415 171.331 15.6396 172.259 16.4927C172.724 16.2167 173.238 15.7275 173.539 15.2507C172.749 14.1091 171.519 13.7327 170.44 13.9711C167.342 14.6486 167.229 19.3908 170.465 19.7546Z" fill="#F8F8F9"/>
<path fill-rule="evenodd" clip-rule="evenodd" d="M186.624 13.8947C185.645 13.8445 184.516 14.2585 183.575 15.1492C182.923 15.764 181.744 17.0938 181.493 17.4576C181.656 17.8214 182.358 18.4362 182.697 18.662C183.073 18.386 183.726 17.5956 184.441 16.9433C184.792 16.6171 185.357 16.0525 185.946 15.9898C186.348 15.9522 186.887 16.1529 186.887 16.7551C186.887 17.5204 185.934 18.0222 185.005 17.1691C184.541 17.4451 184.027 17.9344 183.726 18.4111C184.466 19.4649 185.57 19.8664 186.599 19.7284C189.948 19.2893 189.898 14.0829 186.624 13.8947Z" fill="#F8F8F9"/>
<path fill-rule="evenodd" clip-rule="evenodd" d="M180.426 12.377C179.975 12.7031 179.247 13.3053 178.996 13.7946C179.536 14.3842 181.254 16.1281 181.844 16.517C182.22 16.0026 182.722 15.5886 183.111 15.0617L180.426 12.377Z" fill="#F8F8F9"/>
<path fill-rule="evenodd" clip-rule="evenodd" d="M176.826 21.2846C177.277 20.9584 178.005 20.3562 178.256 19.8669C177.717 19.2773 175.998 17.5334 175.408 17.1445C175.032 17.6589 174.53 18.0729 174.141 18.5998L176.826 21.2846Z" fill="#F8F8F9"/>
<path fill-rule="evenodd" clip-rule="evenodd" d="M178.03 15.1875C177.629 14.5602 176.136 13.3935 175.559 12.5404C175.258 12.1013 175.207 11.6998 175.458 11.4113C175.747 11.0851 176.362 11.0726 176.976 11.612C177.403 11.2106 177.829 10.8216 178.256 10.3324C176.964 8.72654 175.082 9.05272 174.066 10.0815C172.962 11.1855 173.175 12.9167 174.58 14.3971C175.245 15.0997 176.01 15.8775 176.751 16.4671C177.014 16.304 177.98 15.338 178.03 15.1875Z" fill="#F8F8F9"/>
<path fill-rule="evenodd" clip-rule="evenodd" d="M174.091 24.0189C174.994 24.8594 176.412 24.6461 177.441 23.9185C178.77 22.9901 180.339 21.3968 180.602 20.7696C180.339 20.4183 179.774 19.8537 179.385 19.6279C178.783 20.2678 178.206 20.9076 177.579 21.4721C177.353 21.6854 176.863 22.0994 176.587 22.275C175.697 22.8647 174.944 22.0994 175.759 21.171C175.496 20.7821 174.831 20.0419 174.53 19.8412C173.401 20.8448 172.799 22.8145 174.091 24.0189Z" fill="#F8F8F9"/>
<path fill-rule="evenodd" clip-rule="evenodd" d="M179.234 18.474C179.636 19.1013 181.129 20.268 181.706 21.1211C182.007 21.5602 182.057 21.9616 181.806 22.2502C181.518 22.5764 180.903 22.5889 180.288 22.0495C179.862 22.4509 179.435 22.8398 179.009 23.3291C180.301 24.9349 182.183 24.6087 183.199 23.58C184.303 22.476 184.089 20.7447 182.684 19.2643C182.019 18.5618 181.254 17.784 180.514 17.1943C180.251 17.3574 179.272 18.3234 179.234 18.474Z" fill="#F8F8F9"/>
<path fill-rule="evenodd" clip-rule="evenodd" d="M190.513 16.7435C191.416 17.584 192.834 17.3708 193.862 16.6431C195.192 15.7147 196.76 14.1215 197.024 13.4942C196.76 13.1429 196.196 12.5784 195.807 12.3525C195.205 12.9924 194.628 13.6322 194 14.1967C193.775 14.41 193.285 14.824 193.009 14.9996C192.119 15.5893 191.366 14.824 192.181 13.8956C191.918 13.5067 191.253 12.7665 190.952 12.5658C189.823 13.5695 189.221 15.5391 190.513 16.7435Z" fill="#F8F8F9"/>
<path fill-rule="evenodd" clip-rule="evenodd" d="M166.601 33.7546C165.698 32.9141 164.28 33.1274 163.252 33.855C161.922 34.7834 160.354 36.3767 160.09 37.0039C160.354 37.3552 160.918 37.9198 161.307 38.1456C161.909 37.5058 162.486 36.8659 163.114 36.3014C163.339 36.0881 163.829 35.6741 164.105 35.4985C164.995 34.9088 165.748 35.6741 164.933 36.6025C165.196 36.9914 165.861 37.7316 166.162 37.9323C167.291 36.9161 167.893 34.9465 166.601 33.7546Z" fill="#F8F8F9"/>
<path fill-rule="evenodd" clip-rule="evenodd" d="M176.525 34.5703L177.817 35.875C178.457 35.3607 179.736 34.0308 180.338 33.253C180.088 32.8014 179.473 32.149 179.046 31.9106C178.193 32.6759 177.29 33.6921 176.525 34.5703Z" fill="#F8F8F9"/>
<path fill-rule="evenodd" clip-rule="evenodd" d="M170.29 36.8034C171.306 36.9163 172.51 36.5023 173.514 35.5614C174.166 34.9467 175.345 33.6168 175.596 33.253C175.433 32.8892 174.731 32.2745 174.392 32.0487C174.016 32.3247 173.363 33.115 172.648 33.7674C172.297 34.0936 171.732 34.6581 171.13 34.7209C170.729 34.7585 170.189 34.5578 170.189 33.9556C170.189 33.1903 171.143 32.6885 172.071 33.5416C172.535 33.2656 173.05 32.7763 173.351 32.2996C172.56 31.1579 171.331 30.7816 170.252 31.0199C167.178 31.7099 167.065 36.4521 170.29 36.8034Z" fill="#F8F8F9"/>
<path fill-rule="evenodd" clip-rule="evenodd" d="M186.461 30.9572C185.482 30.907 184.353 31.321 183.412 32.2117C182.76 32.8265 181.581 34.1563 181.33 34.5201C181.493 34.8839 182.195 35.4987 182.534 35.7245C182.91 35.4485 183.563 34.6581 184.278 34.0058C184.629 33.6796 185.194 33.115 185.783 33.0523C186.185 33.0147 186.724 33.2154 186.724 33.8176C186.724 34.5828 185.771 35.0847 184.842 34.2316C184.378 34.5076 183.864 34.9969 183.563 35.4736C184.303 36.5274 185.407 36.9289 186.436 36.7909C189.773 36.3392 189.735 31.1454 186.461 30.9572Z" fill="#F8F8F9"/>
<path fill-rule="evenodd" clip-rule="evenodd" d="M180.263 29.4395C179.811 29.7656 179.084 30.3678 178.845 30.8571C179.385 31.4467 181.104 33.1906 181.693 33.5795C182.07 33.0651 182.571 32.6511 182.96 32.1242L180.263 29.4395Z" fill="#F8F8F9"/>
<path fill-rule="evenodd" clip-rule="evenodd" d="M176.663 38.3466C177.114 38.0204 177.842 37.4182 178.093 36.9289C177.553 36.3393 175.835 34.5955 175.245 34.2065C174.869 34.7209 174.367 35.1349 173.978 35.6618L176.663 38.3466Z" fill="#F8F8F9"/>
<path fill-rule="evenodd" clip-rule="evenodd" d="M182.998 26.7048C182.095 25.8643 180.677 26.0776 179.649 26.8052C178.319 27.7336 176.751 29.3269 176.487 29.9541C176.751 30.3054 177.315 30.87 177.704 31.0958C178.306 30.456 178.883 29.8161 179.511 29.2516C179.736 29.0383 180.226 28.6243 180.502 28.4487C181.392 27.859 182.145 28.6243 181.33 29.5527C181.593 29.9416 182.258 30.6818 182.559 30.8825C183.676 29.8789 184.29 27.9092 182.998 26.7048Z" fill="#F8F8F9"/>
<path fill-rule="evenodd" clip-rule="evenodd" d="M177.854 32.249C177.453 31.6217 175.96 30.455 175.383 29.6019C175.082 29.1628 175.032 28.7614 175.283 28.4728C175.571 28.1466 176.186 28.1341 176.801 28.6735C177.227 28.2721 177.654 27.8832 178.08 27.3939C176.788 25.7881 174.906 26.1142 173.89 27.143C172.786 28.247 172.999 29.9783 174.404 31.4586C175.069 32.1612 175.835 32.939 176.575 33.5287C176.838 33.3656 177.817 32.3996 177.854 32.249Z" fill="#F8F8F9"/>
<path fill-rule="evenodd" clip-rule="evenodd" d="M179.059 35.5365C179.461 36.1638 180.953 37.3305 181.531 38.1836C181.832 38.6227 181.882 39.0241 181.631 39.3127C181.342 39.6389 180.728 39.6514 180.113 39.112C179.686 39.5134 179.26 39.9023 178.833 40.3916C180.125 41.9974 182.007 41.6712 183.023 40.6425C184.127 39.5385 183.914 37.8072 182.509 36.3268C181.844 35.6243 181.079 34.8465 180.339 34.2568C180.075 34.4199 179.097 35.3859 179.059 35.5365Z" fill="#F8F8F9"/>
<path fill-rule="evenodd" clip-rule="evenodd" d="M161.069 25.7383L162.361 27.043C163.001 26.5286 164.28 25.1988 164.882 24.421C164.632 23.9693 164.017 23.317 163.59 23.0786C162.737 23.8439 161.834 24.8726 161.069 25.7383Z" fill="#F8F8F9"/>
<path fill-rule="evenodd" clip-rule="evenodd" d="M170.992 22.1379C170.013 22.0877 168.884 22.5017 167.943 23.3924C167.291 24.0071 166.112 25.337 165.861 25.7008C166.024 26.0646 166.726 26.6793 167.065 26.9052C167.442 26.6292 168.094 25.8388 168.809 25.1864C169.16 24.8602 169.725 24.2957 170.327 24.233C170.729 24.1953 171.268 24.3961 171.268 24.9982C171.268 25.7635 170.315 26.2653 169.386 25.4122C168.922 25.6882 168.408 26.1775 168.106 26.6542C168.847 27.7081 169.951 28.1095 170.979 27.9715C174.317 27.5199 174.266 22.3135 170.992 22.1379Z" fill="#F8F8F9"/>
<path fill-rule="evenodd" clip-rule="evenodd" d="M164.807 20.6074C164.356 20.9336 163.628 21.5358 163.377 22.0251C163.916 22.6147 165.635 24.3585 166.225 24.7474C166.601 24.2331 167.103 23.8191 167.492 23.2922L164.807 20.6074Z" fill="#F8F8F9"/>
<path fill-rule="evenodd" clip-rule="evenodd" d="M167.542 17.8723C166.639 17.0318 165.221 17.245 164.192 17.9727C162.863 18.9011 161.282 20.4943 161.031 21.1216C161.294 21.4729 161.859 22.0374 162.248 22.2633C162.85 21.6234 163.427 20.9836 164.054 20.4191C164.28 20.2058 164.77 19.7918 165.046 19.6161C165.936 19.0265 166.689 19.7918 165.874 20.7202C166.137 21.1091 166.802 21.8492 167.103 22.05C168.22 21.0463 168.834 19.0767 167.542 17.8723Z" fill="#F8F8F9"/>
<path fill-rule="evenodd" clip-rule="evenodd" d="M158.459 32.2493C159.362 33.0899 160.78 32.8766 161.809 32.149C163.139 31.2206 164.707 29.6273 164.97 29C164.707 28.6488 164.142 28.0842 163.753 27.8584C163.151 28.4982 162.574 29.138 161.947 29.7026C161.721 29.9159 161.232 30.3299 160.956 30.5055C160.065 31.0951 159.312 30.3299 160.128 29.4015C159.864 29.0126 159.199 28.2724 158.898 28.0717C157.769 29.0753 157.167 31.0575 158.459 32.2493Z" fill="#F8F8F9"/>
<path fill-rule="evenodd" clip-rule="evenodd" d="M163.603 26.704C164.004 27.3312 165.497 28.498 166.074 29.3511C166.375 29.7902 166.426 30.1916 166.175 30.4802C165.886 30.8063 165.271 30.8189 164.657 30.2794C164.23 30.6809 163.804 31.0698 163.377 31.5591C164.669 33.1649 166.551 32.8387 167.567 31.81C168.671 30.706 168.458 28.9747 167.053 27.4943C166.388 26.7918 165.623 26.014 164.882 25.4243C164.619 25.5874 163.64 26.5534 163.603 26.704Z" fill="#F8F8F9"/>
</g>
<path d="M146.36 33V32.568L147.26 32.4C147.268 32.096 147.272 31.768 147.272 31.416C147.28 31.056 147.284 30.744 147.284 30.48V25.212L146.3 25.092V24.672L148.136 24.132L148.304 24.228L148.256 25.932V28.068C148.544 27.748 148.84 27.516 149.144 27.372C149.448 27.22 149.768 27.144 150.104 27.144C150.424 27.144 150.72 27.212 150.992 27.348C151.272 27.476 151.512 27.668 151.712 27.924C151.92 28.172 152.084 28.48 152.204 28.848C152.324 29.216 152.384 29.632 152.384 30.096C152.384 30.56 152.32 30.98 152.192 31.356C152.072 31.732 151.9 32.056 151.676 32.328C151.452 32.592 151.188 32.796 150.884 32.94C150.588 33.084 150.264 33.156 149.912 33.156C149.632 33.156 149.348 33.1 149.06 32.988C148.78 32.868 148.512 32.644 148.256 32.316L148.16 33.12L146.36 33ZM149.72 32.472C149.936 32.472 150.14 32.428 150.332 32.34C150.524 32.244 150.692 32.104 150.836 31.92C150.98 31.728 151.092 31.488 151.172 31.2C151.26 30.912 151.304 30.576 151.304 30.192C151.304 29.416 151.164 28.828 150.884 28.428C150.604 28.028 150.236 27.828 149.78 27.828C149.596 27.828 149.384 27.876 149.144 27.972C148.904 28.068 148.62 28.252 148.292 28.524V31.812C148.54 32.044 148.784 32.212 149.024 32.316C149.264 32.42 149.496 32.472 149.72 32.472ZM153.913 35.988C153.609 35.988 153.349 35.912 153.133 35.76C152.917 35.616 152.809 35.428 152.809 35.196C152.849 35.02 152.945 34.888 153.097 34.8C153.257 34.712 153.429 34.668 153.613 34.668C153.773 34.668 153.921 34.7 154.057 34.764C154.193 34.836 154.341 34.956 154.501 35.124L154.561 35.184C154.817 34.968 155.033 34.708 155.209 34.404C155.385 34.1 155.529 33.784 155.641 33.456L155.689 33.312L153.517 27.828L152.857 27.732V27.3H155.737V27.744L154.681 27.864L156.181 31.956L157.657 27.876L156.613 27.732V27.3H158.953V27.732L158.305 27.864L156.373 32.964C156.173 33.492 155.977 33.948 155.785 34.332C155.601 34.716 155.409 35.028 155.209 35.268C155.017 35.516 154.813 35.696 154.597 35.808C154.389 35.928 154.161 35.988 153.913 35.988Z" fill="#333333"/>
<path d="M201.06 29.28V28.692C201.06 28.172 201.06 27.656 201.06 27.144C201.06 26.624 201.052 26.1 201.036 25.572H199.2L198.936 27.108H198.24L198.336 24.972H204.912L205.008 27.108H204.312L204.048 25.572H202.212C202.196 26.084 202.188 26.6 202.188 27.12C202.188 27.64 202.188 28.164 202.188 28.692V29.28C202.188 29.8 202.188 30.316 202.188 30.828C202.188 31.34 202.196 31.856 202.212 32.376L203.436 32.508V33H199.812V32.508L201.036 32.376C201.052 31.864 201.06 31.352 201.06 30.84C201.06 30.328 201.06 29.808 201.06 29.28ZM206.898 29.28V28.692C206.898 28.172 206.898 27.656 206.898 27.144C206.898 26.632 206.89 26.116 206.874 25.596L205.77 25.464V24.972H209.25C209.666 24.972 210.034 25.02 210.354 25.116C210.682 25.212 210.958 25.348 211.182 25.524C211.406 25.7 211.574 25.908 211.686 26.148C211.806 26.38 211.866 26.64 211.866 26.928C211.866 27.144 211.83 27.352 211.758 27.552C211.694 27.744 211.586 27.924 211.434 28.092C211.282 28.26 211.09 28.408 210.858 28.536C210.626 28.656 210.342 28.752 210.006 28.824C210.406 28.88 210.746 28.972 211.026 29.1C211.314 29.22 211.55 29.368 211.734 29.544C211.918 29.712 212.054 29.904 212.142 30.12C212.23 30.336 212.274 30.564 212.274 30.804C212.274 31.076 212.214 31.344 212.094 31.608C211.982 31.872 211.794 32.108 211.53 32.316C211.274 32.516 210.942 32.68 210.534 32.808C210.134 32.936 209.646 33 209.07 33H205.77V32.508L206.874 32.376C206.89 31.872 206.898 31.364 206.898 30.852C206.898 30.332 206.898 29.808 206.898 29.28ZM208.89 25.524H208.062C208.046 26.044 208.038 26.564 208.038 27.084C208.038 27.596 208.038 28.092 208.038 28.572H208.662C209.39 28.572 209.918 28.452 210.246 28.212C210.574 27.964 210.738 27.564 210.738 27.012C210.738 26.46 210.582 26.076 210.27 25.86C209.966 25.636 209.506 25.524 208.89 25.524ZM208.698 29.124H208.038C208.038 29.756 208.038 30.34 208.038 30.876C208.038 31.404 208.046 31.924 208.062 32.436H208.794C209.57 32.436 210.142 32.296 210.51 32.016C210.886 31.736 211.074 31.332 211.074 30.804C211.074 30.244 210.886 29.824 210.51 29.544C210.134 29.264 209.53 29.124 208.698 29.124ZM214.152 28.692C214.152 28.164 214.152 27.644 214.152 27.132C214.152 26.612 214.144 26.1 214.128 25.596L213.024 25.464V24.972H216.42V25.464L215.316 25.596C215.3 26.116 215.292 26.632 215.292 27.144C215.292 27.656 215.292 28.172 215.292 28.692V29.52C215.292 29.952 215.292 30.412 215.292 30.9C215.292 31.388 215.3 31.888 215.316 32.4H218.04L218.388 30.744H219.12L219 33H213.024V32.508L214.128 32.376C214.144 31.856 214.152 31.34 214.152 30.828C214.152 30.316 214.152 29.804 214.152 29.292V28.692ZM224.101 29.28V28.692C224.101 28.172 224.101 27.656 224.101 27.144C224.101 26.632 224.093 26.116 224.077 25.596L222.973 25.464V24.972H226.357V25.464L225.265 25.584C225.249 26.096 225.241 26.608 225.241 27.12C225.241 27.632 225.241 28.128 225.241 28.608H229.117C229.117 28.08 229.117 27.568 229.117 27.072C229.117 26.576 229.109 26.084 229.093 25.596L227.989 25.464V24.972H231.373V25.464L230.269 25.596C230.253 26.1 230.245 26.612 230.245 27.132C230.245 27.644 230.245 28.164 230.245 28.692V29.28C230.245 29.8 230.245 30.316 230.245 30.828C230.245 31.34 230.253 31.856 230.269 32.376L231.373 32.508V33H227.989V32.508L229.093 32.376C229.109 31.864 229.117 31.344 229.117 30.816C229.117 30.28 229.117 29.732 229.117 29.172H225.241C225.241 29.788 225.241 30.356 225.241 30.876C225.241 31.388 225.249 31.892 225.265 32.388L226.357 32.508V33H222.973V32.508L224.077 32.376C224.093 31.872 224.101 31.364 224.101 30.852C224.101 30.332 224.101 29.808 224.101 29.28ZM234.968 33.156C234.616 33.156 234.276 33.096 233.948 32.976C233.62 32.848 233.328 32.66 233.072 32.412C232.816 32.164 232.608 31.856 232.448 31.488C232.296 31.112 232.22 30.676 232.22 30.18C232.22 29.684 232.296 29.248 232.448 28.872C232.608 28.488 232.816 28.168 233.072 27.912C233.328 27.656 233.62 27.464 233.948 27.336C234.276 27.208 234.616 27.144 234.968 27.144C235.312 27.144 235.648 27.208 235.976 27.336C236.312 27.464 236.608 27.656 236.864 27.912C237.12 28.168 237.328 28.488 237.488 28.872C237.648 29.248 237.728 29.684 237.728 30.18C237.728 30.676 237.648 31.112 237.488 31.488C237.336 31.856 237.128 32.164 236.864 32.412C236.608 32.66 236.312 32.848 235.976 32.976C235.648 33.096 235.312 33.156 234.968 33.156ZM234.968 32.616C235.488 32.616 235.888 32.412 236.168 32.004C236.448 31.596 236.588 30.988 236.588 30.18C236.588 29.364 236.448 28.748 236.168 28.332C235.888 27.908 235.488 27.696 234.968 27.696C234.44 27.696 234.04 27.908 233.768 28.332C233.496 28.748 233.36 29.364 233.36 30.18C233.36 30.988 233.496 31.596 233.768 32.004C234.04 32.412 234.44 32.616 234.968 32.616ZM240.272 31.656C240.272 31.96 240.328 32.184 240.44 32.328C240.56 32.464 240.724 32.532 240.932 32.532C241.068 32.532 241.196 32.508 241.316 32.46C241.444 32.404 241.584 32.32 241.736 32.208L242.024 32.52C241.864 32.728 241.664 32.888 241.424 33C241.184 33.104 240.912 33.156 240.608 33.156C240.184 33.156 239.848 33.048 239.6 32.832C239.36 32.608 239.24 32.26 239.24 31.788C239.24 31.636 239.24 31.488 239.24 31.344C239.248 31.192 239.252 31 239.252 30.768V27.936H238.256V27.408L239.324 27.276L239.636 25.668H240.356L240.296 27.3H241.904V27.936H240.272V31.656ZM245.351 27.144C245.663 27.144 245.955 27.196 246.227 27.3C246.499 27.404 246.735 27.556 246.935 27.756C247.135 27.948 247.291 28.188 247.403 28.476C247.523 28.764 247.583 29.088 247.583 29.448C247.583 29.584 247.575 29.712 247.559 29.832C247.543 29.944 247.523 30.04 247.499 30.12H243.671C243.687 30.864 243.871 31.428 244.223 31.812C244.575 32.188 245.039 32.376 245.615 32.376C245.999 32.376 246.319 32.3 246.575 32.148C246.831 31.996 247.067 31.792 247.283 31.536L247.571 31.764C247.347 32.196 247.043 32.536 246.659 32.784C246.283 33.032 245.819 33.156 245.267 33.156C244.859 33.156 244.491 33.088 244.163 32.952C243.835 32.816 243.555 32.624 243.323 32.376C243.091 32.12 242.911 31.808 242.783 31.44C242.655 31.072 242.591 30.66 242.591 30.204C242.591 29.748 242.663 29.332 242.807 28.956C242.959 28.58 243.159 28.26 243.407 27.996C243.663 27.724 243.955 27.516 244.283 27.372C244.619 27.22 244.975 27.144 245.351 27.144ZM245.279 27.696C245.111 27.696 244.939 27.732 244.763 27.804C244.595 27.868 244.435 27.98 244.283 28.14C244.139 28.292 244.011 28.492 243.899 28.74C243.795 28.98 243.727 29.272 243.695 29.616H245.879C246.167 29.616 246.355 29.556 246.443 29.436C246.539 29.316 246.587 29.168 246.587 28.992C246.587 28.824 246.551 28.664 246.479 28.512C246.415 28.352 246.323 28.212 246.203 28.092C246.091 27.972 245.955 27.876 245.795 27.804C245.635 27.732 245.463 27.696 245.279 27.696ZM248.351 24.672L250.223 24.132L250.391 24.228L250.343 25.932V30.48C250.343 30.8 250.343 31.12 250.343 31.44C250.351 31.76 250.359 32.08 250.367 32.4L251.327 32.568V33H248.351V32.568L249.311 32.4C249.319 32.072 249.323 31.752 249.323 31.44C249.331 31.12 249.335 30.8 249.335 30.48V25.212L248.351 25.092V24.672ZM254.025 33.156C253.689 33.156 253.381 33.116 253.101 33.036C252.821 32.964 252.533 32.852 252.237 32.7L252.189 31.38H252.849L253.077 32.424C253.357 32.552 253.681 32.616 254.049 32.616C254.505 32.616 254.841 32.532 255.057 32.364C255.281 32.196 255.393 31.976 255.393 31.704C255.393 31.448 255.301 31.244 255.117 31.092C254.941 30.94 254.661 30.796 254.277 30.66L253.725 30.456C253.285 30.296 252.933 30.088 252.669 29.832C252.405 29.576 252.273 29.244 252.273 28.836C252.273 28.62 252.317 28.412 252.405 28.212C252.501 28.004 252.637 27.824 252.813 27.672C252.989 27.512 253.205 27.384 253.461 27.288C253.725 27.192 254.025 27.144 254.361 27.144C254.689 27.144 254.985 27.188 255.249 27.276C255.521 27.356 255.785 27.476 256.041 27.636L255.993 28.86H255.369L255.177 27.9C254.905 27.764 254.629 27.696 254.349 27.696C253.981 27.696 253.701 27.772 253.509 27.924C253.325 28.068 253.233 28.264 253.233 28.512C253.233 28.648 253.253 28.764 253.293 28.86C253.333 28.948 253.393 29.032 253.473 29.112C253.561 29.192 253.673 29.268 253.809 29.34C253.953 29.404 254.129 29.472 254.337 29.544L254.709 29.676C255.309 29.9 255.733 30.156 255.981 30.444C256.237 30.724 256.365 31.056 256.365 31.44C256.365 31.672 256.313 31.892 256.209 32.1C256.113 32.3 255.965 32.48 255.765 32.64C255.573 32.8 255.329 32.924 255.033 33.012C254.745 33.108 254.409 33.156 254.025 33.156Z" fill="#333333"/>
</svg>
